<mxfile host="app.diagrams.net" modified="2023-06-12T01:00:05.504Z" agent="5.0 (Macintosh; Intel Mac OS X 10_15_7) AppleWebKit/537.36 (KHTML, like Gecko) Chrome/113.0.0.0 Safari/537.36" version="20.7.4" etag="LOaizAvAoi2fahz5siAl" type="github">
  <diagram id="wKFNy3SVXV0N70M3Oacy" name="第 1 页">
    <mxGraphModel dx="794" dy="467" grid="1" gridSize="10" guides="1" tooltips="1" connect="1" arrows="1" fold="1" page="1" pageScale="1" pageWidth="827" pageHeight="1169" math="0" shadow="0">
      <root>
        <mxCell id="0" />
        <mxCell id="1" parent="0" />
        <mxCell id="RvZhpGBDHvtvQb7W8IzR-4" style="edgeStyle=orthogonalEdgeStyle;rounded=0;orthogonalLoop=1;jettySize=auto;html=1;entryX=0;entryY=0.5;entryDx=0;entryDy=0;" edge="1" parent="1" source="RvZhpGBDHvtvQb7W8IzR-1" target="RvZhpGBDHvtvQb7W8IzR-3">
          <mxGeometry relative="1" as="geometry" />
        </mxCell>
        <mxCell id="RvZhpGBDHvtvQb7W8IzR-5" value="卖出债券" style="edgeLabel;html=1;align=center;verticalAlign=middle;resizable=0;points=[];" vertex="1" connectable="0" parent="RvZhpGBDHvtvQb7W8IzR-4">
          <mxGeometry x="-0.54" relative="1" as="geometry">
            <mxPoint as="offset" />
          </mxGeometry>
        </mxCell>
        <mxCell id="RvZhpGBDHvtvQb7W8IzR-1" value="美联储" style="rounded=0;whiteSpace=wrap;html=1;" vertex="1" parent="1">
          <mxGeometry x="280" y="200" width="120" height="60" as="geometry" />
        </mxCell>
        <mxCell id="RvZhpGBDHvtvQb7W8IzR-2" value="商业银行" style="rounded=0;whiteSpace=wrap;html=1;" vertex="1" parent="1">
          <mxGeometry x="510" y="200" width="120" height="60" as="geometry" />
        </mxCell>
        <mxCell id="RvZhpGBDHvtvQb7W8IzR-6" value="买入债券" style="edgeStyle=orthogonalEdgeStyle;rounded=0;orthogonalLoop=1;jettySize=auto;html=1;entryX=1;entryY=0.5;entryDx=0;entryDy=0;" edge="1" parent="1" source="RvZhpGBDHvtvQb7W8IzR-3" target="RvZhpGBDHvtvQb7W8IzR-1">
          <mxGeometry relative="1" as="geometry" />
        </mxCell>
        <mxCell id="RvZhpGBDHvtvQb7W8IzR-3" value="市场" style="rounded=0;whiteSpace=wrap;html=1;" vertex="1" parent="1">
          <mxGeometry x="370" y="300" width="120" height="60" as="geometry" />
        </mxCell>
        <mxCell id="RvZhpGBDHvtvQb7W8IzR-8" style="edgeStyle=orthogonalEdgeStyle;rounded=0;orthogonalLoop=1;jettySize=auto;html=1;" edge="1" parent="1" source="RvZhpGBDHvtvQb7W8IzR-7" target="RvZhpGBDHvtvQb7W8IzR-1">
          <mxGeometry relative="1" as="geometry">
            <Array as="points">
              <mxPoint x="340" y="100" />
            </Array>
          </mxGeometry>
        </mxCell>
        <mxCell id="RvZhpGBDHvtvQb7W8IzR-7" value="美国政府" style="rounded=0;whiteSpace=wrap;html=1;" vertex="1" parent="1">
          <mxGeometry x="390" y="70" width="120" height="60" as="geometry" />
        </mxCell>
      </root>
    </mxGraphModel>
  </diagram>
</mxfile>
